<svg id="Capa_1" data-name="Capa 1" xmlns="http://www.w3.org/2000/svg" viewBox="0 0 159.21 146.54"><defs><style>.cls-1{fill:#6f9cd0;}</style></defs><path class="cls-1" d="M409,419.91c-.68-.3-1.38-.57-2-.9a4.64,4.64,0,0,1-2.59-5.37c1.54-6.76,3.14-13.5,4.73-20.25q8.55-36.33,17.11-72.66,4.75-20.24,9.5-40.47c.21-.89.38-1.79.65-2.66.84-2.72,2.74-4,6.25-4.22a10.37,10.37,0,0,1,3.55.38c3.35.95,4.74,3.27,3.95,6.65q-5,21.33-10,42.66l-17.64,75c-1.33,5.62-2.69,11.23-4,16.86a5.68,5.68,0,0,1-4.76,4.73,1.25,1.25,0,0,0-.38.23Z" transform="translate(-347.49 -273.36)"/><path class="cls-1" d="M347.5,346.51a7.45,7.45,0,0,1,.06-1.49,11,11,0,0,1,4.25-6.79c12.84-9.93,25.6-20,38.4-30a7.84,7.84,0,0,1,1.73-1c2.39-1,4.8.14,5.2,2.69a34.72,34.72,0,0,1-.08,11.19,5.17,5.17,0,0,1-2.14,3.34l-28.6,21.7a16.87,16.87,0,0,1-1.81,1.37c-1,.58-.65.95.05,1.47,9.8,7.34,19.56,14.73,29.4,22a7.56,7.56,0,0,1,3.43,6.1,49.68,49.68,0,0,1-.15,9c-.54,3.47-3.55,4.66-6.36,2.48q-10.39-8.08-20.74-16.22c-6.44-5-12.82-10.15-19.34-15.09a7.4,7.4,0,0,1-3.18-6.07c0-.84,0-1.21-.05-3.09C347.55,347.41,347.52,346.87,347.5,346.51Z" transform="translate(-347.49 -273.36)"/><path class="cls-1" d="M456.6,380.82c.13-1.46,0-3.05.19-4.64a6.56,6.56,0,0,1,2.8-4.54q15-11.42,30-22.82c.9-.67.69-.93,0-1.47q-15-11.14-29.92-22.31a6.23,6.23,0,0,1-2.81-4.63,56.55,56.55,0,0,1,0-9.91c.3-3.52,3.68-4.72,6.53-2.51,3.05,2.38,6.08,4.78,9.13,7.16l28,21.87c1.26,1,2.5,2,3.78,2.94a6,6,0,0,1,2.15,4.26,26.85,26.85,0,0,1-.2,9.16,5.39,5.39,0,0,1-2,3.27L468.8,384.26l-5.08,4a5.37,5.37,0,0,1-2.56,1.23,3.55,3.55,0,0,1-4.26-3A32.34,32.34,0,0,1,456.6,380.82Z" transform="translate(-347.49 -273.36)"/></svg>