<svg id="Capa_1" data-name="Capa 1" xmlns="http://www.w3.org/2000/svg" viewBox="0 0 125.57 75.93"><defs><style>.cls-1{fill:#b7c6e7;}.cls-2{fill:#769bd1;}.cls-3{fill:#9bb3de;}.cls-4{fill:#a4b9e1;}.cls-5{fill:#cdd7ef;}</style></defs><path class="cls-1" d="M393,363.82v-.07a.89.89,0,0,1,1.05,0,.25.25,0,0,0,0,.08Z" transform="translate(-350.49 -298.84)"/><path class="cls-2" d="M476.06,366.69v.19a5.71,5.71,0,0,0-.13,1,7.11,7.11,0,0,1-1.9,4,9,9,0,0,1-3.49,2.42,8,8,0,0,1-3,.48q-12.43,0-24.87,0H359.33a8.6,8.6,0,0,1-8.71-6.65,6,6,0,0,1-.13-1.48v-59.8a5.88,5.88,0,0,1,.66-2.87c.26-.48.54-.53,1-.17q3.57,3.06,7.16,6.1l7.2,6.13c1.79,1.51,3.57,3,5.35,4.56l6,5.13,4.82,4.12L388,334.4c1.8,1.52,3.59,3.06,5.39,4.59l5.36,4.56,5.38,4.59c1,.89,2.07,1.79,3.16,2.62a9.81,9.81,0,0,0,12.18-.21c2.26-1.84,4.47-3.76,6.7-5.65l5.86-5,4.81-4.11c1.77-1.52,3.55-3,5.32-4.53,1.57-1.35,3.15-2.68,4.72-4s3.12-2.66,4.69-4l4-3.45q2.37-2,4.72-4,2.07-1.77,4.15-3.53l4.08-3.48,4.14-3.53c.61-.52,1.19-1.05,1.82-1.54.43-.34.69-.26.93.25a6.52,6.52,0,0,1,.52,2.82v7.31a1,1,0,0,0,.05.5v51.31A1.2,1.2,0,0,0,476.06,366.69Z" transform="translate(-350.49 -298.84)"/><path class="cls-3" d="M476.06,314.63a.5.5,0,0,1-.1-.35c0-2.35,0-4.69,0-7,0,0,.06,0,.08,0Z" transform="translate(-350.49 -298.84)"/><path class="cls-4" d="M476.06,366.69a.7.7,0,0,1,0-.75Z" transform="translate(-350.49 -298.84)"/><path class="cls-5" d="M476.06,307.26l-.08,0v-.46h.08Z" transform="translate(-350.49 -298.84)"/><path class="cls-2" d="M470.81,299.77a33.41,33.41,0,0,0-3,2.47q-9.42,8-18.83,16l-19.85,16.92L416.47,346a4.87,4.87,0,0,1-6.27.05c-3.53-3-7-6-10.56-9l-15.48-13.19-15-12.74-12.89-11-.17-.15c-.13-.13-.33-.25-.26-.46s.29-.13.45-.18a19.77,19.77,0,0,1,5.37-.48q52.74,0,105.49,0a7.35,7.35,0,0,1,3.21.68A.78.78,0,0,1,470.81,299.77Z" transform="translate(-350.49 -298.84)"/></svg>