<svg id="Capa_1" data-name="Capa 1" xmlns="http://www.w3.org/2000/svg" viewBox="0 0 122.42 123.2"><defs><style>.cls-1{fill:#e0e5f5;}.cls-2{fill:#b7c6e7;}.cls-3{fill:#769bd1;}</style></defs><path class="cls-1" d="M350.46,305.55h-.08v-3h.08a.49.49,0,0,1,.16.41c0,.72,0,1.44,0,2.15A.51.51,0,0,1,350.46,305.55Z" transform="translate(-350.38 -240.63)"/><path class="cls-2" d="M393,363.82v-.07a.89.89,0,0,1,1.05,0,.25.25,0,0,0,0,.08Z" transform="translate(-350.38 -240.63)"/><path class="cls-3" d="M394.15,362.55h-1a5.41,5.41,0,0,1-1.87-.65c-3.5-1.65-7.05-3.19-10.42-5.09a54.63,54.63,0,0,1-8.11-5.72,60.13,60.13,0,0,1-5-4.61A58.75,58.75,0,0,1,358,333a64.81,64.81,0,0,1-6.2-18.09,63,63,0,0,1-1.06-8.55c0-.66-.05-1.33-.09-2v-3a63.11,63.11,0,0,1,13.59-37.51,60.83,60.83,0,0,1,22-17.55,57.72,57.72,0,0,1,15.71-4.9,60.53,60.53,0,0,1,49.18,13.84,62.69,62.69,0,0,1,13.68,16.85,61,61,0,0,1,6.49,16.82,64.61,64.61,0,0,1,1.28,8.29,66.53,66.53,0,0,1,.25,8.11,63.37,63.37,0,0,1-2.16,14.5,63,63,0,0,1-13.2,24.79,60.73,60.73,0,0,1-20.08,15.24,47.63,47.63,0,0,1-5.88,2.39,6.05,6.05,0,0,1-1.74.3,2.46,2.46,0,0,1-2.58-1.85,8.22,8.22,0,0,1-.29-2.57c0-5.28,0-10.56,0-15.84a19,19,0,0,0-1.58-8,12.9,12.9,0,0,0-1.82-2.85c-.13-.17-.27-.33-.46-.56l2.45-.54a68.6,68.6,0,0,0,8.35-2.14,23.93,23.93,0,0,0,9.95-6.43,24.31,24.31,0,0,0,5.24-9.58,43,43,0,0,0,1.4-7.64,39.74,39.74,0,0,0,.26-5.56,21.42,21.42,0,0,0-2.88-10.26c-.87-1.51-1.73-3-2.58-4.56a3.44,3.44,0,0,1-.33-2.72,20.08,20.08,0,0,0,.65-5.51,28.16,28.16,0,0,0-1.17-7.63,4.62,4.62,0,0,0-.44-1,1.67,1.67,0,0,0-2-.83c-3.71,1.2-7.5,2.17-10.88,4.2a11.31,11.31,0,0,1-7,1.67c-1.29-.11-2.55-.47-3.82-.69-1.7-.29-3.4-.49-5.11-.61a50.83,50.83,0,0,0-5.52-.07,54,54,0,0,0-8.42,1c-1.11.22-2.21.46-3.32.7a3.68,3.68,0,0,1-2.76-.49c-1.59-.95-3.18-1.92-4.83-2.77a26.83,26.83,0,0,0-8.44-2.85,2.16,2.16,0,0,0-2.68,1.64,27.17,27.17,0,0,0-1.11,5.72,23.8,23.8,0,0,0,.7,8.32,2,2,0,0,1-.42,1.84,23.11,23.11,0,0,0-4.63,9.11,30,30,0,0,0-.77,4.89,37.57,37.57,0,0,0,.12,6.54,34,34,0,0,0,3.41,12.54,22.28,22.28,0,0,0,9.67,9.59,35.84,35.84,0,0,0,10.73,3.45c.89.16,1.79.32,2.69.46.26,0,.26.13.18.33-.94,2.52-1.85,5.06-2.87,7.55a1.83,1.83,0,0,1-1,1c-5.31,2.45-11.13,1.81-15.19-3-.89-1.06-1.56-2.27-2.36-3.39a13,13,0,0,0-5.93-4.88c-.7-.26-1.42-.41-2.14-.61a1.22,1.22,0,0,0-.68,0c-.76.21-1.5.5-2.25.74-.26.09-.31.16-.16.41a6.84,6.84,0,0,0,2,2.36,18.61,18.61,0,0,1,6.21,7.84,29.49,29.49,0,0,0,1.92,4.06,14.31,14.31,0,0,0,9,6.08,17,17,0,0,0,6.27.22c1.22-.17,2.45-.3,3.68-.46.24,0,.33,0,.33.28,0,2.94.11,5.89,0,8.83a13.82,13.82,0,0,1-.14,2.49A2.68,2.68,0,0,1,394.15,362.55Z" transform="translate(-350.38 -240.63)"/></svg>