<svg id="Capa_1" data-name="Capa 1" xmlns="http://www.w3.org/2000/svg" viewBox="0 0 112.82 113.11"><defs><style>.cls-1{fill:#6f9cd0;}</style></defs><path class="cls-1" d="M542.81,292c-.94-8-8.46-15.49-16.52-16.42-10.91-1.26-21.85-.55-32.78-.4-14.5.21-29,.06-43.49,0a20.25,20.25,0,0,0-9.53,2.15,17.66,17.66,0,0,0-9.92,17.92c0,.38,0,.95,0,1.65s0,1.29,0,1.36q0,16.72,0,33.46c0,14.31-.3,18.56,0,33.47,0,1.82.07,3.31.09,4.29a19,19,0,0,0,.3,3.67,17.54,17.54,0,0,0,4.85,9.53,18.18,18.18,0,0,0,9.5,4.7,21.73,21.73,0,0,0,5.38.48c.9,0,2.69,0,4.93,0,22.42.17,44.84-.36,67.26,0a20.18,20.18,0,0,0,9.89-2.13,19.1,19.1,0,0,0,5.82-4.77c3.74-4.46,4.66-9.49,4.66-14.95q0-34.29,0-68.6A47.27,47.27,0,0,0,542.81,292Zm-75.09,38.17c.06,9.93,0,19.85,0,29.78,0,4.65-.8,5.39-5.49,5.46-8.4.12-8.4.12-8.4-8.23v-14.1c0-6,.06-12,0-18,0-2.91,1-4.35,4.12-4.32C469.33,320.87,467.65,319.77,467.72,330.18Zm-7-16.48a7.64,7.64,0,0,1-7.7-7.71,8.06,8.06,0,0,1,7.76-7.81,7.89,7.89,0,0,1,7.67,7.83A7.62,7.62,0,0,1,460.76,313.7Zm55.54,51.72c-8.92.84-9.44.35-9.52-8.63,0-5.48.38-11-.34-16.44s-3.44-8-8.73-7.9-8.49,3.18-8.68,8.61c-.22,6.13-.08,12.26-.1,18.39,0,5.27-.67,5.93-5.78,6-1.18,0-2.35,0-3.53,0-2.94,0-4.1-1.32-4.07-4.35.12-11.36,0-22.72.07-34.09,0-2.55-.93-5.79,3.39-6.2,7.21-.66,8.23-.2,9.63,5.2,5.92-4.55,11.87-7.42,19.19-5.28,7,2,11.7,7.58,11.88,14.81.22,8.74,0,17.5.12,26.25C519.85,364.22,518.68,365.2,516.3,365.42Z" transform="translate(-430.42 -274.86)"/><path class="cls-1" d="M430.57,366.41" transform="translate(-430.42 -274.86)"/></svg>