<svg id="Capa_1" data-name="Capa 1" xmlns="http://www.w3.org/2000/svg" viewBox="0 0 175.78 175.91"><defs><style>.cls-1{fill:#dee5f4;}.cls-2{fill:#bccce9;}.cls-3{fill:#99b5dd;}.cls-4{fill:#6f9cd0;}</style></defs><path class="cls-1" d="M586.53,413.89a.4.4,0,0,1,.19,0v6.23c-.08.16-.14.16-.19,0Z" transform="translate(-410.95 -331.96)"/><path class="cls-2" d="M586.53,420.12l.19,0v6.23c-.08.16-.15.16-.21,0C586.51,424.27,586.52,422.2,586.53,420.12Z" transform="translate(-410.95 -331.96)"/><path class="cls-3" d="M586.51,426.35l.21,0v3.35C586.23,428.63,586.58,427.48,586.51,426.35Z" transform="translate(-410.95 -331.96)"/><path class="cls-1" d="M508.13,332a1.37,1.37,0,0,1,0,.19h-2.43c0-.07,0-.13,0-.2Z" transform="translate(-410.95 -331.96)"/><path class="cls-4" d="M586.72,429.72V430c-.24,2.63-2.13,3.28-4.31,3.63-6.18,1-12.38,1.73-18.6,2.4-1,.1-1.27.68-1.48,1.45a71.36,71.36,0,0,1-3.56,9.77c-.79,1.75-1.73,3.42-2.64,5.1a1.52,1.52,0,0,0,.12,1.86c3.82,4.91,7.46,10,11.26,14.88a5.16,5.16,0,0,1-.3,7.16c-4.06,4.06-7.91,8.34-12.06,12.32-2.33,2.24-4.16,2.45-6.8.59-4-2.79-7.76-5.87-11.61-8.84-1.26-1-2.54-1.93-3.75-3a1.61,1.61,0,0,0-2.07-.15,62.48,62.48,0,0,1-13.77,5.75,2,2,0,0,0-1.57,2q-1.11,8.11-2.3,16.21c-.12.74-.17,1.5-.3,2.25-.51,3.06-2.17,4.5-5.32,4.5-5.27,0-10.54,0-15.81,0-.83,0-1.67,0-2.5,0-2.41.06-3.61-1.61-4-3.56-.84-4.75-1.4-9.53-2-14.31-.22-1.78-.4-3.56-.65-5.34a1.52,1.52,0,0,0-1.3-1.45A57,57,0,0,1,468,477.9a3.16,3.16,0,0,0-4.11.35c-4.68,3.6-9.36,7.2-14.12,10.68a5.05,5.05,0,0,1-6.94-.44c-4.18-3.95-8.25-8-12.31-12.07-2.24-2.25-2.39-4.25-.56-6.81,3.52-4.93,7.3-9.67,11.05-14.43,1.16-1.47,1.17-1.51.23-3.15a55.09,55.09,0,0,1-5.6-13.18,2.82,2.82,0,0,0-2.77-2.38c-5.93-.67-11.83-1.64-17.75-2.42a4.51,4.51,0,0,1-4-4.47c-.06-6.35-.26-12.69-.13-19,0-2.46.95-3.49,3.43-4,2.77-.58,5.58-.92,8.38-1.27,3.52-.44,7-.95,10.56-1.27a2,2,0,0,0,1.9-1.65,57.28,57.28,0,0,1,5.59-13.7,2.39,2.39,0,0,0-.19-3.12c-3.79-4.83-7.44-9.77-11.16-14.65a5.21,5.21,0,0,1,.53-6.69c.89-1,1.86-1.87,2.78-2.81,3.1-3.17,6.09-6.43,9.27-9.53,2.39-2.32,4.24-2.47,7-.51,5.1,3.64,10,7.51,14.95,11.37a1.69,1.69,0,0,0,2.15.22,65.22,65.22,0,0,1,14.44-6,2,2,0,0,0,1.62-1.92c.86-6.35,1.73-12.7,2.67-19a4.28,4.28,0,0,1,4.06-3.73c4.67-.29,9.34-.06,14-.12,1,0,1.92,0,2.88,0H508c3-.08,4,1,4.47,3.84,1,6.12,1.75,12.29,2.45,18.46.22,1.94.2,2,2.09,2.51a65.94,65.94,0,0,1,15.34,6.6,1.85,1.85,0,0,0,2.28-.13c5.12-3.6,10.2-7.25,15.34-10.83,2.41-1.68,4.86-1.58,6.92.47,4.28,4.24,8.41,8.63,12.52,13a4.08,4.08,0,0,1,.41,5.57c-2.18,3.15-4.7,6-7.12,9-1.81,2.23-3.67,4.41-5.5,6.62a1.54,1.54,0,0,0-.18,2A59.34,59.34,0,0,1,562.2,402c.27,1,1,1.18,1.78,1.28l7.58,1c3.59.47,7.17,1,10.76,1.5,3,.41,4.28,2,4.28,5.05,0,1.12,0,2.24,0,3.36v12A21.16,21.16,0,0,0,586.72,429.72ZM498.88,445.5a25.55,25.55,0,1,0-25.52-25.66A25.63,25.63,0,0,0,498.88,445.5Z" transform="translate(-410.95 -331.96)"/></svg>