<svg id="Capa_1" data-name="Capa 1" xmlns="http://www.w3.org/2000/svg" viewBox="0 0 31.23 31.23"><defs><style>.cls-1{fill:#698698;}.cls-2{fill:#3da7df;}.cls-3{fill:#92afc5;}</style></defs><path class="cls-1" d="M14.36,30.9a.31.31,0,0,1-.19-.18l0,0V28.27h0c.07-.05.14,0,.21,0,.39.23.81.42,1.2.66s.42.26.86,0l4.16-2.27,2.7-1.48,2.82-1.54a.38.38,0,0,0,.21-.32l.42-2.84c.17-1.12.34-2.25.5-3.37s.34-2.24.5-3.36c.24-1.65.49-3.32.74-5,.17-1.18.34-2.35.52-3.52.13-.85.25-1.69.38-2.54,0-.19,0-.22-.18-.22-1.12,0-2.23,0-3.34,0s-2.15,0-3.22,0c-1.84,0-3.68,0-5.51,0-.55,0-1.09,0-1.64,0-.39,0-.78,0-1.17,0a.25.25,0,0,1-.17-.06h0V.59c1.7,0,3.39,0,5.08,0,1.36,0,2.73,0,4.1,0h3.88a1.83,1.83,0,0,1,.33,0h.8A.26.26,0,0,0,28.6.51a0,0,0,0,0,0,0,.17.17,0,0,0,.16.07h.73a.17.17,0,0,0,.16-.07s0,0,0,0a.18.18,0,0,0,.12.05h.82a.18.18,0,0,0,.12-.05s0,0,0,0a.1.1,0,0,0,.09.06,2.55,2.55,0,0,0,.73,0,.11.11,0,0,0,0,.14l-.39,2.65L30.7,7c-.15.94-.29,1.88-.43,2.82l-.57,3.85-.48,3.29-.57,3.84-.42,2.82c-.07.45-.14.89-.2,1.33a.42.42,0,0,1-.23.36q-2.78,1.5-5.53,3l-3.46,1.9-2.69,1.48a.18.18,0,0,0-.07,0H16a4.74,4.74,0,0,1-.88-.42Z" transform="translate(-0.38 -0.48)"/><path class="cls-2" d="M23.56,10.85a.66.66,0,0,0,.29-.59q0-1.53,0-3.06a.65.65,0,0,0-.28-.57,1.73,1.73,0,0,0-1-.31H20.25c-.14,0-.18,0-.18.2V11c0,.11,0,.18.14.18h2.52A1.4,1.4,0,0,0,23.56,10.85Z" transform="translate(-0.38 -0.48)"/><path class="cls-1" d="M23.85,10.26a.66.66,0,0,1-.29.59,1.4,1.4,0,0,1-.83.3H20.21c-.13,0-.14-.07-.14-.18V6.51c0-.15,0-.19.18-.19h2.33a1.65,1.65,0,0,1,1,.31.64.64,0,0,1,.29.57Q23.84,8.73,23.85,10.26Z" transform="translate(-0.38 -0.48)"/><path class="cls-1" d="M23.44,16a.77.77,0,0,1,0,1.35,2.45,2.45,0,0,1-1.43.43c-.29,0-.57,0-.86,0h-.92c-.12,0-.18,0-.17-.18V15.74c0-.15.05-.2.18-.2.68,0,1.35,0,2,0A2.15,2.15,0,0,1,23.44,16Z" transform="translate(-0.38 -0.48)"/><path class="cls-1" d="M14.54,3.14c1,0,2.05,0,3.07,0,1.4,0,2.81,0,4.22,0s3,0,4.56,0c.78,0,1.56,0,2.33,0,.13,0,.17,0,.15.17-.19,1.21-.37,2.42-.55,3.64l-.63,4.3c-.17,1.17-.35,2.35-.53,3.53l-.69,4.71c-.18,1.23-.37,2.46-.55,3.69a.3.3,0,0,1-.17.25L22.32,25.2l-4.78,2.62-1.31.72a.27.27,0,0,1-.3,0l-1.72-.94V3.51C14.21,3.16,14.21,3.16,14.54,3.14Zm10.77,7.24V7.1a1.39,1.39,0,0,0-.38-1,2.84,2.84,0,0,0-2.05-.89c-1.22,0-2.45,0-3.68,0-.41,0-.6.22-.6.65v5.77a.52.52,0,0,0,.44.57h0l.22,0c1.23,0,2.46.05,3.69,0a3,3,0,0,0,1.72-.66A1.45,1.45,0,0,0,25.31,10.38Zm-.29,11a.47.47,0,0,0,.14-.76l-1.49-1.86c-.09-.11-.06-.15.06-.19a3.07,3.07,0,0,0,.84-.44,1.73,1.73,0,0,0,.17-2.7,3.39,3.39,0,0,0-1.15-.69,4.39,4.39,0,0,0-1.52-.27H19.33c-.61,0-.74.28-.74.76,0,.92,0,1.84,0,2.76V20.9a.52.52,0,0,0,.43.57,1.26,1.26,0,0,0,.61,0,.52.52,0,0,0,.43-.59V19.15c0-.3,0-.28.27-.28h1.48a.46.46,0,0,1,.4.2c.55.71,1.11,1.41,1.67,2.11a.9.9,0,0,0,1.15.21Z" transform="translate(-0.38 -0.48)"/><path class="cls-3" d="M14.21,3.51v24.1a.46.46,0,0,1-.08-.28V3.54c0-.43,0-.43.41-.4C14.21,3.16,14.21,3.16,14.21,3.51Z" transform="translate(-0.38 -0.48)"/><path class="cls-3" d="M14.21,28.27v2.47l0,0v0a.5.5,0,0,1,0-.12V28.44a.26.26,0,0,1,0-.15l0,0Z" transform="translate(-0.38 -0.48)"/><path class="cls-3" d="M14.21.59v2h0l0,0a.35.35,0,0,1,0-.22V.83a.42.42,0,0,1,0-.24Z" transform="translate(-0.38 -0.48)"/><path class="cls-3" d="M2.25.53c1.06,0,2.12,0,3.17,0H8.8c1,0,1.91,0,2.86,0s1.68,0,2.52,0a.4.4,0,0,0,0,.24V2.29a.45.45,0,0,0,0,.23l0,0A.21.21,0,0,1,14,2.6c-.92,0-1.83,0-2.74,0-1.13-.05-2.25,0-3.37,0-1.67,0-3.33,0-5,0-.21,0-.21,0-.18.21.25,1.7.51,3.39.76,5.08L4,11.48l.75,5.06.57,3.88c.14.95.29,1.9.43,2.86a.47.47,0,0,0,.27.41l2.72,1.49,4.85,2.66.45.25c.07,0,.14.07.16.16l0,0a.4.4,0,0,0,0,.15v2.13a.5.5,0,0,0,0,.12v0L9.76,28.3,7.49,27.05,4.17,25.22A.26.26,0,0,1,4,25c-.14-1-.29-2-.44-3s-.27-1.77-.4-2.66C3,18.2,2.83,17,2.66,15.8L2.24,13c-.16-1.06-.31-2.12-.47-3.18L1.35,7c-.14-1-.29-2-.43-2.95C.8,3.27.69,2.49.57,1.7.51,1.32.47.93.38.56V.48a.27.27,0,0,0,.2.08H2A.19.19,0,0,0,2.18.48a0,0,0,0,0,0,0A.05.05,0,0,0,2.25.53Z" transform="translate(-0.38 -0.48)"/><path class="cls-3" d="M14.54,3.14c-.4,0-.4,0-.4.4V27.33a.45.45,0,0,0,.07.28L13.12,27l-2.6-1.41L6.76,23.53a.6.6,0,0,0-.15-.09c-.34-.09-.39-.38-.44-.7-.14-1-.31-2.1-.46-3.15s-.33-2.21-.49-3.32c-.14-1-.29-1.92-.44-2.89-.19-1.35-.39-2.7-.59-4-.15-1-.31-2-.46-3s-.3-2-.45-3c0-.16,0-.22.17-.22.87,0,1.73,0,2.59,0,1.38.05,2.76,0,4.14,0s2.81,0,4.22,0A.22.22,0,0,1,14.54,3.14Z" transform="translate(-0.38 -0.48)"/></svg>