<svg id="Capa_1" data-name="Capa 1" xmlns="http://www.w3.org/2000/svg" viewBox="0 0 220.25 208.28"><defs><style>.cls-1{fill:#5798bd;}.cls-2{fill:#688699;}.cls-3{fill:#89afcb;}.cls-4{fill:#86b3d4;}.cls-5{fill:#83b8df;}.cls-6{fill:#3aa7df;}.cls-7{fill:#3ba7df;}.cls-8{fill:#91afc5;}.cls-9{fill:#51a9db;}.cls-10{fill:#63aad6;}.cls-11{fill:#93bfe0;}.cls-12{fill:#7fbde8;}</style></defs><path class="cls-1" d="M551.14,165.08a1.51,1.51,0,0,1-.26.2v-.18Z" transform="translate(-330.89 -164.79)"/><path class="cls-1" d="M550.88,165.28a1.51,1.51,0,0,0,.26-.2v1.2h-.24C550.89,166,550.89,165.62,550.88,165.28Z" transform="translate(-330.89 -164.79)"/><path class="cls-2" d="M550.88,165.28c0,.34,0,.67,0,1a.7.7,0,0,1-.2-.9l.07,0Z" transform="translate(-330.89 -164.79)"/><path class="cls-2" d="M550.88,165.1v.18l-.11.08-.07,0A1,1,0,0,1,550.88,165.1Z" transform="translate(-330.89 -164.79)"/><path class="cls-2" d="M544.93,165.06l6,0a1,1,0,0,0-.18.28,19.16,19.16,0,0,1-5.13.12.79.79,0,0,1-.65-.41A0,0,0,0,0,544.93,165.06Z" transform="translate(-330.89 -164.79)"/><path class="cls-3" d="M550.66,164.85c.15,0,.51-.24.48.23l-.26,0-6,0a.35.35,0,0,0,0-.22C546.82,164.84,548.74,164.83,550.66,164.85Z" transform="translate(-330.89 -164.79)"/><path class="cls-3" d="M544.9,164.84a.35.35,0,0,1,0,.22h0Z" transform="translate(-330.89 -164.79)"/><path class="cls-2" d="M544.93,165.06a0,0,0,0,1,0,0l0,0Z" transform="translate(-330.89 -164.79)"/><path class="cls-4" d="M544.9,164.84v.22l-7.67,0a1.93,1.93,0,0,1,0-.24Z" transform="translate(-330.89 -164.79)"/><path class="cls-2" d="M537.23,165.08l7.67,0,0,0a.42.42,0,0,1-.11.16,1.44,1.44,0,0,1-.89.31c-1.9,0-3.81,0-5.72,0a1.44,1.44,0,0,1-.89-.31.33.33,0,0,1-.1-.14S537.22,165.09,537.23,165.08Z" transform="translate(-330.89 -164.79)"/><path class="cls-2" d="M429.33,367.63c-.55-.28-1.13-.55-1.33-1.2l.3.15q0-8.24,0-16.47a.19.19,0,0,0,0-.08c.52-.31,1,0,1.5.24,2.75,1.55,5.66,2.81,8.4,4.37,3,1.7,3,1.77,6.09.17,9.77-5,19.51-10.11,29.28-15.14,6.36-3.27,12.7-6.58,19.05-9.87,6.6-3.42,13.19-6.86,19.81-10.24a2.6,2.6,0,0,0,1.53-2.1c.93-6.31,1.95-12.62,2.94-18.93q1.76-11.23,3.53-22.47c1.17-7.45,2.36-14.9,3.51-22.36,1.71-11,3.46-22.08,5.17-33.12q1.82-11.72,3.7-23.42c.9-5.63,1.73-11.28,2.66-16.91.21-1.26,0-1.48-1.28-1.48-7.83,0-15.68-.2-23.5.06-7.56.25-15.11,0-22.66.19-12.94.29-25.89.11-38.84.29-3.83.05-7.66.19-11.5.15-2.75,0-5.5-.28-8.26-.23a1.62,1.62,0,0,1-1.23-.39.27.27,0,0,0,.07-.08q0-6.47,0-12.94c11.91-.09,23.82.06,35.73-.18,9.61-.18,19.23-.1,28.85-.2h27.37a12.33,12.33,0,0,1,2.27.17c1.9,0,3.8,0,5.7,0a2.21,2.21,0,0,0,1.48-.32.42.42,0,0,0,.11-.16,1.31,1.31,0,0,0,1.15.47c1.7,0,3.41,0,5.12,0a1.34,1.34,0,0,0,1.14-.46.33.33,0,0,0,.1.14,1.44,1.44,0,0,0,.89.31c1.91,0,3.82,0,5.72,0a1.44,1.44,0,0,0,.89-.31.42.42,0,0,0,.11-.16.79.79,0,0,0,.65.41,19.16,19.16,0,0,0,5.13-.12.7.7,0,0,0,.2.9L548.14,184l-3.75,24.13c-1,6.27-2,12.53-3,18.8q-2,12.83-4,25.66L534,274.48q-2,12.76-4,25.54c-1,6.27-2,12.54-3,18.8-.46,3-.94,5.91-1.35,8.88a2.81,2.81,0,0,1-1.66,2.37q-19.5,10-38.95,20.18-12.19,6.31-24.36,12.65l-18.94,9.84a5.25,5.25,0,0,0-.49.33h-.72a29.55,29.55,0,0,1-6.17-2.79C432.7,369.41,431,368.47,429.33,367.63Z" transform="translate(-330.89 -164.79)"/><path class="cls-2" d="M537.23,165.08s0,0,0,0a0,0,0,0,1,0,0Z" transform="translate(-330.89 -164.79)"/><path class="cls-5" d="M537.22,164.84a1.93,1.93,0,0,0,0,.24h0A.3.3,0,0,1,537.22,164.84Z" transform="translate(-330.89 -164.79)"/><path class="cls-5" d="M529.78,164.84h7.44a.3.3,0,0,0,0,.24h-7.4A.32.32,0,0,0,529.78,164.84Z" transform="translate(-330.89 -164.79)"/><path class="cls-2" d="M537.2,165.08a0,0,0,0,0,0,0,1.34,1.34,0,0,1-1.14.46c-1.71,0-3.42,0-5.12,0a1.31,1.31,0,0,1-1.15-.47h7.4Z" transform="translate(-330.89 -164.79)"/><path class="cls-5" d="M529.78,164.84a.32.32,0,0,1,0,.25h0A2,2,0,0,0,529.78,164.84Z" transform="translate(-330.89 -164.79)"/><polygon class="cls-2" points="198.91 0.3 198.91 0.31 198.9 0.3 198.91 0.3"/><path class="cls-2" d="M520.24,165.44H492.87l4.12-.05c8.11-.14,16.23-.07,24.34-.1a2.18,2.18,0,0,0,1.28-.19h7.19a.42.42,0,0,1-.11.16,2.21,2.21,0,0,1-1.48.32c-1.9,0-3.8,0-5.7,0A12.33,12.33,0,0,0,520.24,165.44Z" transform="translate(-330.89 -164.79)"/><path class="cls-6" d="M494.12,234.13a4.4,4.4,0,0,0,2.07-3.92c-.08-6.79-.06-13.58,0-20.37a4.25,4.25,0,0,0-2-3.82,12.17,12.17,0,0,0-6.9-2.06c-5.48,0-10.95,0-16.42,0-1,0-1.31.29-1.3,1.29,0,4.91,0,9.83,0,14.74s0,10,0,15c0,.72.06,1.22,1,1.21,5.92,0,11.83,0,17.74-.06A10.29,10.29,0,0,0,494.12,234.13Z" transform="translate(-330.89 -164.79)"/><path class="cls-2" d="M496.19,230.21a4.4,4.4,0,0,1-2.07,3.92,10.29,10.29,0,0,1-5.83,2c-5.91.08-11.82,0-17.74.06-.94,0-1-.49-1-1.21,0-5,0-10,0-15s0-9.83,0-14.74c0-1,.31-1.29,1.3-1.29,5.47,0,10.94,0,16.42,0a12.17,12.17,0,0,1,6.9,2.06,4.25,4.25,0,0,1,2,3.82C496.13,216.63,496.11,223.42,496.19,230.21Z" transform="translate(-330.89 -164.79)"/><path class="cls-2" d="M493.32,268.33c3.76,2.58,3.79,6.35.05,9-3,2.13-6.51,2.74-10.1,2.89-2,.08-4,0-6,0s-4.31,0-6.47,0c-.9,0-1.27-.2-1.26-1.2q.07-6.17,0-12.34c0-1,.35-1.32,1.33-1.3,4.75.11,9.5-.17,14.25.21A16.48,16.48,0,0,1,493.32,268.33Z" transform="translate(-330.89 -164.79)"/><path class="cls-7" d="M492.87,165.44H455.09c12.08,0,24.16-.12,36.24-.16,10.07,0,20.15,0,30.22-.08a2.24,2.24,0,0,0,1.06-.1,2.18,2.18,0,0,1-1.28.19c-8.11,0-16.23,0-24.34.1Z" transform="translate(-330.89 -164.79)"/><path class="cls-7" d="M455.09,165.44q-11.56,0-23.13,0Z" transform="translate(-330.89 -164.79)"/><path class="cls-2" d="M430.65,182.76c7.19,0,14.39.17,21.58,0,9.91-.22,19.82,0,29.73-.23,10.71-.23,21.42,0,32.13-.26,5.48-.11,10.95,0,16.42-.17.86,0,1.18.1,1,1.12-1.32,8.07-2.56,16.16-3.82,24.24-1.49,9.54-3,19.09-4.45,28.63-1.23,7.84-2.5,15.68-3.73,23.52q-2.46,15.67-4.88,31.35c-1.28,8.2-2.58,16.39-3.85,24.6a2,2,0,0,1-1.18,1.64q-12.12,6.19-24.19,12.47L451.78,347.1c-3.08,1.6-6.17,3.2-9.23,4.85a2,2,0,0,1-2.11,0c-4-2.12-8.09-4.19-12.14-6.28,0-.64,0-1.28,0-1.91V185.26C428.28,182.91,428.28,182.91,430.65,182.76ZM506.46,231q0-10.92,0-21.83a8.92,8.92,0,0,0-2.68-6.47,20.48,20.48,0,0,0-14.41-5.91c-8.63-.26-17.27-.11-25.9-.08-2.9,0-4.23,1.44-4.23,4.33q0,9.42,0,18.83c0,6.52,0,13,0,19.55a3.49,3.49,0,0,0,3.16,3.86,8.17,8.17,0,0,0,1.54.22c8.67-.11,17.35.33,26-.23a22.14,22.14,0,0,0,12.12-4.4C504.66,236.92,506.44,234.42,506.46,231Zm-2,73.26c2.15-1.23,2.5-3.22.92-5.08-3.48-4.12-6.93-8.26-10.43-12.37-.63-.74-.44-1,.39-1.31a21.43,21.43,0,0,0,5.9-2.89c6.43-4.62,7-12.81,1.21-18a23.74,23.74,0,0,0-8.08-4.58,32.29,32.29,0,0,0-10.7-1.82q-9.66-.07-19.31,0c-4.33,0-5.24,1.91-5.19,5.08.12,6.11,0,12.23,0,18.35,0,6.47,0,12.95,0,19.43a3.45,3.45,0,0,0,3,3.78,9.56,9.56,0,0,0,4.29,0c2.19-.53,3.06-1.69,3.07-3.94,0-3.84,0-7.68,0-11.52,0-2-.22-1.89,1.84-1.89,3.48,0,7,0,10.44,0a3.22,3.22,0,0,1,2.82,1.38q5.83,7.06,11.76,14.06A6.58,6.58,0,0,0,504.48,304.28Z" transform="translate(-330.89 -164.79)"/><path class="cls-8" d="M428.28,185.26V343.79c0,.63,0,1.27,0,1.91a2.84,2.84,0,0,1-.51-1.81c0-.52,0-1,0-1.56V185.45c0-2.86,0-2.86,2.86-2.69C428.28,182.91,428.28,182.91,428.28,185.26Z" transform="translate(-330.89 -164.79)"/><path class="cls-7" d="M427.38,165.44h1.74a1.27,1.27,0,0,0-.92.26A1,1,0,0,0,427.38,165.44Z" transform="translate(-330.89 -164.79)"/><path class="cls-7" d="M492.87,165.44c-9.62.1-19.24,0-28.85.2-11.91.24-23.82.09-35.73.18l-.09-.12a1.27,1.27,0,0,1,.92-.26H432q11.57.06,23.13,0Z" transform="translate(-330.89 -164.79)"/><path class="cls-8" d="M428.32,350.11q0,8.24,0,16.47l-.3-.15a1.21,1.21,0,0,1-.05-.18,3.28,3.28,0,0,1-.14-.82q0-7.1,0-14.18a1.77,1.77,0,0,1,.24-1,1,1,0,0,1,.25-.19A.19.19,0,0,1,428.32,350.11Z" transform="translate(-330.89 -164.79)"/><path class="cls-7" d="M428.19,165.71h0l.09.12h-.18A.76.76,0,0,1,428.19,165.71Z" transform="translate(-330.89 -164.79)"/><path class="cls-8" d="M428.29,165.82q0,6.47,0,12.94a.27.27,0,0,1-.07.08l-.15-.18a2.69,2.69,0,0,1-.25-1.5q0-4.87,0-9.75a2.59,2.59,0,0,1,.31-1.59Z" transform="translate(-330.89 -164.79)"/><path class="cls-8" d="M344.12,165.41c7.44.08,14.88,0,22.31,0h20.41l3.39.07c6.71.14,13.42,0,20.12.07,5.92,0,11.84.16,17.76.24a2.59,2.59,0,0,0-.31,1.59q0,4.88,0,9.75a2.69,2.69,0,0,0,.25,1.5l.15.18a1.75,1.75,0,0,1-1.46.4c-6.44,0-12.88.2-19.31-.05-7.91-.3-15.83,0-23.73-.2-11.71-.3-23.42-.18-35.13-.23-1.42,0-1.43,0-1.22,1.4,1.74,11.28,3.54,22.55,5.31,33.83q1.92,12.18,3.83,24.37,2.64,16.86,5.3,33.71,2,12.9,4,25.79c1,6.35,2,12.69,3,19.05a3.26,3.26,0,0,0,1.9,2.75l19.17,9.91c11.38,5.91,22.75,11.84,34.17,17.69,1.06.55,2.1,1.15,3.16,1.7.47.25,1,.47,1.1,1.07a1,1,0,0,0-.25.19,1.77,1.77,0,0,0-.24,1q0,7.1,0,14.18a3.28,3.28,0,0,0,.14.82,1.21,1.21,0,0,0,.05.18l-31-16.07L381,342l-23.39-12.17a1.75,1.75,0,0,1-1.07-1.44c-1-6.53-2-13.06-3.08-19.6-.93-5.9-1.89-11.8-2.8-17.71-1.25-8-2.46-16-3.7-24q-1.45-9.33-2.94-18.65-1.65-10.57-3.29-21.14c-1-6.26-2-12.51-3-18.77-1-6.54-2-13.08-3-19.61q-1.23-7.86-2.5-15.7c-.42-2.55-.65-5.13-1.29-7.64v-.49a1.76,1.76,0,0,0,1.42.48c3.29,0,6.58,0,9.87,0,.52,0,1,0,1.38-.49a.29.29,0,0,0,.11.15A1.13,1.13,0,0,0,344.12,165.41Z" transform="translate(-330.89 -164.79)"/><path class="cls-8" d="M430.65,182.76c-2.86-.17-2.86-.17-2.86,2.69V342.33c0,.52,0,1,0,1.56a2.84,2.84,0,0,0,.51,1.81c-2.55-1.33-5.09-2.69-7.64-4-6.11-3.16-12.23-6.28-18.34-9.44q-13.24-6.84-26.5-13.73a5.35,5.35,0,0,0-1-.59c-2.45-.6-2.81-2.5-3.12-4.61-1-7-2.18-14-3.28-21q-1.72-11.06-3.43-22.09c-1-6.42-2.06-12.83-3.06-19.25-1.4-9-2.77-18-4.17-26.93-1.07-6.77-2.18-13.53-3.26-20.3s-2.1-13.47-3.18-20.2c-.18-1.07,0-1.46,1.23-1.45,6.08.06,12.16-.12,18.23.08,9.71.33,19.42,0,29.12.24,9.91.3,19.82.09,29.72.2A1.93,1.93,0,0,1,430.65,182.76Z" transform="translate(-330.89 -164.79)"/><path class="cls-7" d="M381.52,165.09H487.37l35.24,0a2.24,2.24,0,0,1-1.06.1c-10.07.07-20.15.05-30.22.08-12.08,0-24.16.12-36.24.16h-28l-9-.09c-12.21-.08-24.41,0-36.61-.15A.41.41,0,0,1,381.52,165.09Z" transform="translate(-330.89 -164.79)"/><path class="cls-7" d="M381.52,165.2c12.2.17,24.4.07,36.61.15l9,.09H386.84c-1.77-.05-3.55-.08-5.33-.11A.57.57,0,0,1,381.52,165.2Z" transform="translate(-330.89 -164.79)"/><path class="cls-7" d="M410.35,165.58c-6.7-.05-13.41.07-20.12-.07l-3.39-.07h40.54a1,1,0,0,1,.82.26h0a.76.76,0,0,0-.08.11C422.19,165.74,416.27,165.62,410.35,165.58Z" transform="translate(-330.89 -164.79)"/><path class="cls-9" d="M381.52,165.09a.41.41,0,0,0,0,.11h-.11S381.45,165.13,381.52,165.09Z" transform="translate(-330.89 -164.79)"/><path class="cls-9" d="M366.4,165.09h15.12c-.07,0-.11.07-.11.11h-14.9S366.46,165.13,366.4,165.09Z" transform="translate(-330.89 -164.79)"/><path class="cls-9" d="M381.51,165.2h0a.57.57,0,0,0,0,.13c-.08,0-.12-.09-.1-.13Z" transform="translate(-330.89 -164.79)"/><path class="cls-9" d="M381.51,165.33H366.4c.08,0,.12-.08.11-.12h14.9S381.43,165.29,381.51,165.33Z" transform="translate(-330.89 -164.79)"/><path class="cls-9" d="M366.51,165.2s0,.08-.11.12v-.12Z" transform="translate(-330.89 -164.79)"/><path class="cls-9" d="M366.51,165.2h-.11v-.11C366.46,165.13,366.5,165.16,366.51,165.2Z" transform="translate(-330.89 -164.79)"/><path class="cls-10" d="M344.9,165.2a3,3,0,0,1-1.26-.1h0l0,0H366.4v.11H344.9Z" transform="translate(-330.89 -164.79)"/><path class="cls-10" d="M366.4,165.32H344.75a1.5,1.5,0,0,1-1.11-.21,3,3,0,0,0,1.26.1h21.5Z" transform="translate(-330.89 -164.79)"/><path class="cls-11" d="M343.61,164.84a1.93,1.93,0,0,1,0,.24h0A.26.26,0,0,1,343.61,164.84Z" transform="translate(-330.89 -164.79)"/><path class="cls-12" d="M343.61,165.08l0,0h0a1.93,1.93,0,0,0,0-.24H529.78a2,2,0,0,1,0,.25h-7.18l-35.24,0H343.61Z" transform="translate(-330.89 -164.79)"/><path class="cls-8" d="M344.75,165.31h36.76c1.78,0,3.56.06,5.33.11H366.43c-7.43,0-14.87.05-22.31,0a1.13,1.13,0,0,1-.42-.17.29.29,0,0,1-.11-.15h.05A1.5,1.5,0,0,0,344.75,165.31Z" transform="translate(-330.89 -164.79)"/><polygon class="cls-8" points="12.71 0.29 12.7 0.3 12.7 0.29 12.71 0.29"/><path class="cls-8" d="M343.59,165.08h0c-.34.49-.86.48-1.38.49-3.29,0-6.58,0-9.87,0a1.76,1.76,0,0,1-1.42-.48Z" transform="translate(-330.89 -164.79)"/><path class="cls-11" d="M330.89,164.84h12.72a.26.26,0,0,0,0,.24l-12.67,0Z" transform="translate(-330.89 -164.79)"/></svg>